<?xml version="1.0" standalone="no"?>
<!DOCTYPE svg PUBLIC "-//W3C//DTD SVG 1.1//EN" "http://www.w3.org/Graphics/SVG/1.1/DTD/svg11.dtd" >
<svg>
<metadata>
Created by FontForge 20090914 at Thu Feb 23 18:36:14 2012
 By ffonts
2002 Iconian Fonts - www.iconian.com
</metadata>
<defs>
<font id="7thServiceSemi-Condensed" horiz-adv-x="348" >
  <font-face 
    font-family="7th Service Semi-Condensed"
    font-weight="400"
    font-stretch="condensed"
    units-per-em="1000"
    panose-1="0 0 0 0 0 0 0 0 0 0"
    ascent="800"
    descent="-200"
    x-height="767"
    cap-height="768"
    bbox="-10 -251 970 918"
    underline-thickness="38"
    underline-position="-58"
    unicode-range="U+0020-U+2026"
  />
<missing-glyph horiz-adv-x="385" 
 />
    <glyph glyph-name=".notdef" horiz-adv-x="385" 
 />
    <glyph glyph-name=".null" horiz-adv-x="0" 
 />
    <glyph glyph-name="nonmarkingreturn" horiz-adv-x="385" 
 />
    <glyph glyph-name="space" unicode=" " horiz-adv-x="385" 
 />
    <glyph glyph-name="space" unicode="&#xa0;" horiz-adv-x="385" 
 />
    <glyph glyph-name="FL0021h" unicode="!" 
d="M7 768h200v-479h-200v479zM7 182h207v-182h-207v182z" />
    <glyph glyph-name="FL0022h" unicode="&#x22;" horiz-adv-x="668" 
d="M320 564l49 -103h101l57 103v204h-207v-204zM7 564l49 -103h101l57 103v204h-207v-204z" />
    <glyph glyph-name="FL0023h" unicode="#" horiz-adv-x="930" 
d="M766 766h-230l-237 -280v-198l244 -288h244l-335 396zM7 768v-768h197v768h-197z" />
    <glyph glyph-name="FL0024h" unicode="$" horiz-adv-x="991" 
d="M860 548q0 12 -1.5 29t-5 35.5t-10.5 38t-18 37.5q-22 36 -52 52q-29 15 -61.5 21.5t-55.5 6.5h-59v-176q14 -5 26 -16t14 -28h223zM7 220q0 -26 6 -64.5t29 -76.5q11 -17 23.5 -29.5t27.5 -20.5q29 -16 61.5 -22.5t56.5 -6.5h60v178q-15 0 -27 14t-14 28h-223zM292 770
l-83 -2q-19 0 -41 -3q-24 -3 -68 -28q-45 -23 -63 -54q-11 -15 -16.5 -34t-8.5 -43q-3 -33 -3 -60v-15q0 -10 1 -13q2 -40 11.5 -75t30.5 -64q9 -12 18 -22.5t20 -18.5q9 -6 27 -12.5t47 -12.5q55 -12 99 -12h339q19 0 29.5 -18t10.5 -38q0 -11 -3 -23t-9 -21.5t-14.5 -16
t-19.5 -6.5h-227v-326h209v148h78q18 0 41 3t46 11.5t44 24t37 40.5q17 28 24 61.5t7 66.5q0 11 -0.5 22.5t-1.5 22.5q-6 40 -24 86q-10 23 -19.5 39t-19.5 27q-13 11 -25.5 19.5t-26.5 13.5q-32 12 -74 21.5t-95 9.5h-273q-52 0 -63 17q-10 17 -10 38q0 11 3 23t9 21.5
t14.5 16t19.5 6.5h225v318h-202v-138z" />
    <glyph glyph-name="FL0025h" unicode="%" horiz-adv-x="682" 
d="M592 762l-380 -763h-210l367 771h226zM221 534h-208v182h208v-182zM376 236h208v-182h-208v182z" />
    <glyph glyph-name="FL259" unicode="&#x26;" horiz-adv-x="865" 
d="M729 182q0 -182 -181 -182h-541v183h421l-369 297h275zM729 586h-722q0 182 181 182h541v-182z" />
    <glyph glyph-name="FL0027h" unicode="'" 
d="M7 564l49 -103h101l57 103v204h-207v-204z" />
    <glyph glyph-name="FL0028h" unicode="(" horiz-adv-x="529" 
d="M374 575v193h-155q-38 0 -76.5 -14.5t-69 -41.5t-49.5 -67t-19 -91v-340q0 -51 19 -91t49.5 -67.5t69 -42.5t76.5 -15h155v193h-74q-10 2 -17.5 3t-13.5 3.5t-12 7t-14 13.5q-15 18 -21 39t-9 44v167q3 22 9 43t21 39q16 18 26.5 21.5t23.5 3.5h81z" />
    <glyph glyph-name="FL0029h" unicode=")" horiz-adv-x="529" 
d="M5 575v193h155q38 0 76.5 -14.5t69 -41.5t49.5 -67t19 -91v-340q0 -51 -19 -91t-49.5 -67.5t-69 -42.5t-76.5 -15h-155v193h74q10 2 17.5 3t14 3.5t12.5 7t14 13.5q15 18 20.5 39t8.5 44v167q-3 22 -8.5 43t-20.5 39q-16 18 -26.5 21.5t-24.5 3.5h-81z" />
    <glyph glyph-name="FL002Ah" unicode="*" 
d="M7 586h207v182h-207v-182z" />
    <glyph glyph-name="FL002Bh" unicode="+" horiz-adv-x="548" 
d="M269 618v-147h126v-166h-126v-146h-141v145h-121v168h121v146h141z" />
    <glyph glyph-name="FL002Ch" unicode="," horiz-adv-x="360" 
d="M7 182v-308h80l127 126v182h-207z" />
    <glyph glyph-name="FL002Dh" unicode="-" horiz-adv-x="548" 
d="M7 471h388v-167h-388v167z" />
    <glyph glyph-name="FL002Eh" unicode="." horiz-adv-x="360" 
d="M7 182h207v-182h-207v182z" />
    <glyph glyph-name="FL002Fh" unicode="/" horiz-adv-x="686" 
d="M592 762l-380 -763h-210l367 771h226z" />
    <glyph glyph-name="FL0030h" unicode="0" horiz-adv-x="1051" 
d="M4 301h203q4 -29 15 -54q5 -11 14.5 -20t21 -15.5t23 -10t20.5 -3.5h315q21 0 43 13q26 14 36.5 36.5t13.5 53.5h203q0 -60 -11 -114.5t-36 -96t-64.5 -66t-97.5 -24.5h-489q-57 0 -97 24.5t-65 66t-36.5 96t-11.5 114.5zM4 468q0 60 11.5 114t36.5 95.5t65 66t97 24.5
h489q58 0 97.5 -24.5t64.5 -66t36 -95.5t11 -114h-203q-2 16 -5.5 29t-9.5 24q-9 22 -35 36q-23 14 -43 14h-315q-21 0 -43 -14q-25 -13 -35.5 -35t-15.5 -54h-203zM355 468h207v-183h-207v183z" />
    <glyph glyph-name="FL0031h" unicode="1" horiz-adv-x="909" 
d="M288 483v-197h201v482h-482v-185h281v-100zM7 0h763v186h-763v-186z" />
    <glyph glyph-name="FL0032h" unicode="2" horiz-adv-x="994" 
d="M2 517q0 36 3 71.5t13.5 66.5t29.5 55.5t52 36.5l29 9.5t29 7.5t36.5 6.5t38.5 3.5h102v-170q-14 0 -24.5 0.5t-18.5 0.5t-12 -0.5t-6 -0.5q-3 -1 -6.5 -1.5t-8.5 -3.5q-20 -3 -35 -12q-13 -10 -20.5 -29t-9.5 -41h-192zM459 602l-1 168h114q5 1 9 1h9h17q58 0 97.5 -11
t71.5 -32q37 -25 57.5 -72.5t20.5 -134.5q0 -45 -9.5 -85.5t-29 -72t-50 -50t-72.5 -18.5h-234v162h120q3 -1 10 -1q23 0 40.5 21t17.5 50v4q0 29 -15.5 45.5t-29.5 25.5h-143zM6 237q0 91 26.5 138t71.5 65q17 7 40.5 11t55.5 6h134v-162q-19 0 -40 -2t-39 -9.5t-29.5 -23
t-11.5 -43.5v-1v-64h121v-152h-329v237zM813 -2l-355 -1v155h355v-154z" />
    <glyph glyph-name="FL0033h" unicode="3" horiz-adv-x="1037" 
d="M7 476v-182h551v182h-551zM7 575h602h2q12 -1 22.5 -4t25.5 -21t21 -39t9 -43v-167q-3 -23 -9 -44t-21 -39q-8 -9 -14 -13.5t-12 -7t-13.5 -3.5t-17.5 -3h-595v-191h676q38 0 76.5 14.5t69 42t49.5 67t19 90.5v340q0 51 -19 91t-49.5 67t-69 41.5t-76.5 14.5h-676v-193z
" />
    <glyph glyph-name="FL0034h" unicode="4" horiz-adv-x="930" 
d="M7 768v-468h487v168h-290v300h-197zM793 768h-198v-768h198v768z" />
    <glyph glyph-name="FL0035h" unicode="5" horiz-adv-x="994" 
d="M2 253q0 -35 3 -70.5t13.5 -66.5t29.5 -55.5t52 -36.5q15 -6 29 -10.5t29 -7.5t36.5 -6t38.5 -3h102v170q-8 -1 -14 -1h-10h-19q-17 0 -18 1q-3 1 -6.5 1.5t-8.5 2.5q-20 3 -35 12q-13 11 -20.5 30t-9.5 40h-192zM459 169l-1 -169h114q5 -1 9 -1h9h17q58 0 97.5 11
t71.5 32q37 25 57.5 73t20.5 134q0 45 -9.5 86t-29 72.5t-50 50t-72.5 18.5h-234v-163h120q3 1 10 1q23 0 40.5 -21t17.5 -50v-4q0 -28 -15.5 -45t-29.5 -25h-143zM6 534q0 -92 26.5 -139t71.5 -64q17 -8 40.5 -12t55.5 -6h134v163q-19 0 -40 1.5t-39 9t-29.5 23t-11.5 43.5
v1v64h121v152h-329v-236zM813 772l-355 2v-156h355v154z" />
    <glyph glyph-name="FL0036h" unicode="6" horiz-adv-x="991" 
d="M482 468h-186q-52 0 -63 17q-10 17 -10 38q0 11 3 23t9 21.5t14.5 16t19.5 6.5h227v178h-287q-24 0 -56.5 -6.5t-61.5 -21.5q-29 -16 -51.5 -51.5t-27.5 -82.5q-2 -13 -2.5 -24.5t-2.5 -23.5v-309q3 -18 3 -42q0 -33 6.5 -66.5t23.5 -61.5q16 -25 37.5 -40.5t44.5 -24
t46 -11.5t41 -3h287v177h-227q-11 0 -19.5 6.5t-14.5 17t-9 22t-3 22.5q0 20 10.5 38t29.5 18h339q19 0 29.5 -18t10.5 -38q0 -11 -3 -23t-9 -21.5t-14.5 -16t-19.5 -6.5v-178h60q23 0 55.5 6.5t61.5 22.5q29 15 52 50t28 85q2 24 0 44v132q-12 35 -32 58.5t-45.5 38.5
t-55 22t-62.5 9h-176z" />
    <glyph glyph-name="FL0037h" unicode="7" horiz-adv-x="865" 
d="M415 482h262l-420 -481h-250zM7 586v182h722v-182h-722z" />
    <glyph glyph-name="FL0038h" unicode="8" horiz-adv-x="991" 
d="M482 468h87q52 0 63 17q10 17 10 38q0 11 -3 23t-9 21.5t-14.5 16t-18.5 6.5v178h59q18 0 41 -3t46 -11.5t45 -24t38 -40.5q16 -27 22.5 -60t6.5 -67q0 -11 -0.5 -22.5t-1.5 -22.5q-3 -21 -9 -39.5t-15 -36.5q-16 -33 -76 -60q59 -19 76 -54q26 -49 26 -116
q0 -11 -0.5 -23t-1.5 -24q-5 -50 -28 -85t-52 -50q-29 -16 -61.5 -22.5t-55.5 -6.5h-60v178q11 0 19.5 6.5t14.5 16t9 21.5t3 23q0 20 -10.5 38t-29.5 18h-339q-19 0 -29.5 -18t-10.5 -38q0 -11 3 -22.5t9 -22t14.5 -17t19.5 -6.5h227v-177h-287q-18 0 -41 3t-46 11.5
t-44.5 24t-37.5 40.5q-17 28 -23.5 61.5t-6.5 66.5v22q0 12 2 23q3 19 8.5 37.5t14.5 37.5q17 34 76 54q-59 27 -76 60q-25 49 -25 118v22q0 12 2 25q5 47 27.5 82.5t51.5 51.5q29 15 61.5 21.5t56.5 6.5h287v-178h-227q-11 0 -19.5 -6.5t-14.5 -16t-9 -21.5t-3 -23
q0 -21 10 -38q11 -17 63 -17h186z" />
    <glyph glyph-name="FL0039h" unicode="9" horiz-adv-x="952" 
d="M7 482l1 151q0 13 7.5 34t24.5 42q17 20 51 39.5t84 19.5h642v-186h-562q-14 0 -24 -7.5t-16.5 -19.5t-9.5 -28t-3 -33v-21q0 -40 12.5 -60t43.5 -20h559v-393h-204v198h-438q-50 1 -84 21t-51 41q-17 20 -24.5 40.5t-8.5 33.5v148z" />
    <glyph glyph-name="FL003Ah" unicode=":" horiz-adv-x="353" 
d="M7 471h210v-167h-210v167zM7 182h207v-182h-207v182z" />
    <glyph glyph-name="FL003Bh" unicode=";" horiz-adv-x="353" 
d="M7 471v-167h210v167h-210zM7 182v-308h80l127 126v182h-207z" />
    <glyph glyph-name="FL003Ch" unicode="&#x3c;" horiz-adv-x="952" 
d="M7 392v-392h204v198h351q2 0 10 -5t17 -11.5t16 -13t7 -9.5v-159h204v191q0 19 -6 34t-16.5 29t-23.5 27.5l-28 28.5q24 33 38 47q14 17 25 36.5t13 42.5v332h-195v-277q0 -43 -19.5 -71t-61.5 -28h-535zM7 586h207v182h-207v-182z" />
    <glyph glyph-name="FL003Dh" unicode="=" horiz-adv-x="548" 
d="M7 619h388v-167h-388v167zM7 327h388v-167h-388v167z" />
    <glyph glyph-name="FL003Eh" unicode="&#x3e;" horiz-adv-x="952" 
d="M7 392v-392h204v198h351q2 0 10 -5t17 -11.5t16 -13t7 -9.5v-159h204v191q0 19 -6 34t-16.5 29t-23.5 27.5l-28 28.5q24 33 38 47q14 17 25 36.5t13 42.5v332h-195v-277q0 -43 -19.5 -71t-61.5 -28h-535zM7 586h207v182h-207v-182z" />
    <glyph glyph-name="FL003Fh" unicode="?" horiz-adv-x="991" 
d="M385 468h-87q-53 0 -95 -9.5t-74 -21.5q-14 -7 -27.5 -15t-24.5 -18q-21 -23 -40 -66q-8 -22 -13.5 -40.5t-7.5 -33.5h201q1 3 3 5q10 14 18.5 23t25.5 9h340q43 0 99 12q55 12 73 25q20 15 38 41q21 29 30.5 64t12.5 75q1 5 1 13v15q0 14 -1 28.5t-3 31.5q-4 47 -24 77
q-18 31 -64 56q-48 23 -67 26q-23 3 -41 3h-287v-178h227q10 0 18.5 -6.5t14.5 -16t9.5 -21.5t3.5 -23q0 -19 -11 -38q-11 -17 -62 -17h-186zM7 548h223q2 17 14 28t26 16v176h-59q-24 0 -56 -6.5t-61 -21.5q-30 -16 -52 -52q-12 -18 -18.5 -37.5t-10.5 -38t-5 -35.5t-1 -29
zM7 182v-182h207v182h-207z" />
    <glyph glyph-name="FL0040h" unicode="@" horiz-adv-x="1037" 
d="M701 311l188 218h-271l-202 -218h285zM895 194h-602q-13 0 -23.5 3.5t-26.5 20.5q-15 18 -21 39t-9 44v167q3 22 9 43t21 39q8 9 14 14t12 7.5t13.5 3.5t17.5 3h597v190h-678q-38 0 -76.5 -14.5t-69 -42t-49.5 -67t-19 -90.5v-340q0 -51 19 -91t49.5 -67t69 -41.5
t76.5 -14.5h676v194z" />
    <glyph glyph-name="FL0041h" unicode="A" horiz-adv-x="1101" 
d="M485 553l274 -554h211l-368 769h-233l-367 -769h210zM376 182v-182h208v182h-208z" />
    <glyph glyph-name="FL0042h" unicode="B" horiz-adv-x="984" 
d="M7 768h197v-300h365q24 0 35.5 19.5t11.5 45.5q0 21 -13 39t-34 18h-268v178h362q39 0 68 -18.5t48.5 -48.5t29 -68.5t9.5 -78.5v-62q-5 -17 -7 -29.5t-7 -23t-15.5 -20.5t-32.5 -22q24 -16 40 -25.5t26 -20t14.5 -25t6.5 -41.5v-150q0 -39 -20.5 -64.5t-49.5 -41.5
t-61 -22.5t-56 -6.5h-355v178h295q11 0 19.5 6.5t14.5 16t9 21.5t3 23q0 20 -10.5 38t-29.5 18h-398v-301h-197v768z" />
    <glyph glyph-name="FL0043h" unicode="C" horiz-adv-x="1051" 
d="M4 468v-167q0 -60 11.5 -114.5t36.5 -96t65 -66t97 -24.5h489q58 0 98 24.5t64 66.5q23 39 34 87.5t11 91.5v14h-202q-3 -14 -13.5 -37t-35.5 -36q-22 -13 -43 -13h-315q-9 0 -20.5 3.5t-23 10t-21 15.5t-14.5 20q-6 13 -9.5 26t-5.5 28v167q5 32 15.5 54t35.5 35
q22 14 43 14h315q20 0 43 -14q26 -14 35 -36q5 -9 8.5 -18t5.5 -17h202v14q0 20 -2.5 43.5t-8 47t-14 46.5t-19.5 42q-26 40 -65.5 64.5t-97.5 24.5h-489q-57 0 -97 -24.5t-65 -66t-36.5 -95.5t-11.5 -114z" />
    <glyph glyph-name="FL0044h" unicode="D" horiz-adv-x="1037" 
d="M7 476h207v-182h-207v182zM7 575v193h676q38 0 76.5 -14.5t69 -41.5t49.5 -67t19 -91v-340q0 -51 -19 -90.5t-49.5 -67t-69 -42t-76.5 -14.5h-678v191h597q10 2 17.5 3t13.5 3.5t12 7t14 13.5q15 18 21 39t9 44v167q-3 22 -9 43t-21 39t-26 21.5t-24 3.5h-602z" />
    <glyph glyph-name="FL0045h" unicode="E" horiz-adv-x="865" 
d="M205 -1l524 1v183h-514v121h514v167h-722v-472h198zM7 586h722v182h-722v-182z" />
    <glyph glyph-name="FL0046h" unicode="F" horiz-adv-x="868" 
d="M7 471v-471h208v304h514v167h-722zM7 586h722v182h-722v-182z" />
    <glyph glyph-name="FL0047h" unicode="G" horiz-adv-x="1037" 
d="M897 456h-208v-219h208v219zM895 575v193h-676q-38 0 -76.5 -14.5t-69 -41.5t-49.5 -67t-19 -91v-340q0 -51 19 -90.5t49.5 -67t69 -42t76.5 -14.5h678v191h-597q-10 2 -17.5 3t-13.5 3.5t-12 7t-14 13.5q-15 18 -21 39t-9 44v167q3 22 9 43t21 39q16 18 26.5 21.5
t23.5 3.5h602z" />
    <glyph glyph-name="FL0048h" unicode="H" horiz-adv-x="930" 
d="M7 768h197v-300h290v-168h-290v-300h-197v768zM793 768v-768h-198v768h198z" />
    <glyph glyph-name="FL0049h" unicode="I" horiz-adv-x="909" 
d="M287 478l1 -183h201v183h-202zM7 768v-186h763v186h-763zM7 0h763v186h-763v-186z" />
    <glyph glyph-name="FL004Ah" unicode="J" horiz-adv-x="1032" 
d="M393 768h207v-182h-207v182zM689 769h208v-555q0 -51 -19 -90.5t-49.5 -67t-69 -42t-76.5 -14.5h-676v194h602q13 0 24 3.5t26 20.5q15 18 21 39t9 44v468z" />
    <glyph glyph-name="FL004Bh" unicode="K" horiz-adv-x="930" 
d="M793 768l-285 -300h285v-468h-198v300h-290v168l290 300h198zM7 768h197v-768h-197v768z" />
    <glyph glyph-name="FL004Ch" unicode="L" horiz-adv-x="803" 
d="M7 768h200v-768h-200v768zM301 198h362v-198h-362v198z" />
    <glyph glyph-name="FL004Dh" unicode="M" horiz-adv-x="1104" 
d="M484 329l275 439h211l-456 -769h-58l-454 769h210zM7 -1v566l200 -343v-223h-200zM965 -1h-200v223l200 343v-566z" />
    <glyph glyph-name="FL004Eh" unicode="N" horiz-adv-x="930" 
d="M7 768v-768h195v496l292 -374v292l-271 354h-216zM793 768h-198v-768h198v768z" />
    <glyph glyph-name="FL004Fh" unicode="O" horiz-adv-x="1051" 
d="M4 301q0 -60 11.5 -114.5t36.5 -96t65 -66t97 -24.5h489q58 0 97.5 24.5t64.5 66t36 96t11 114.5h-203q-3 -31 -13.5 -53.5t-36.5 -36.5q-23 -13 -43 -13h-315q-9 0 -20.5 3.5t-23 9.5t-21 15t-14.5 21q-6 13 -9.5 26t-5.5 28h-203zM4 468h203q5 32 15.5 54t35.5 35
q23 14 43 14h315q18 0 43 -14q26 -14 35 -36q10 -19 15 -53h203q0 60 -11 114t-36 95.5t-64.5 66t-97.5 24.5h-489q-57 0 -97 -24.5t-65 -66t-36.5 -95.5t-11.5 -114z" />
    <glyph glyph-name="FL0050h" unicode="P" horiz-adv-x="952" 
d="M817 334v299q-1 13 -8.5 34t-24.5 42q-17 20 -51 39.5t-84 19.5h-642v-186h562q28 0 40.5 -26.5t12.5 -61.5v-21q0 -40 -12.5 -60t-43.5 -20h-559v-393h204v198h438q50 0 84 20.5t51 41.5q17 20 24.5 40.5t8.5 33.5z" />
    <glyph glyph-name="FL0051h" unicode="Q" horiz-adv-x="1051" 
d="M4 301h203q4 -29 15 -54q5 -11 14.5 -20.5t21 -15.5t23 -9t20.5 -2h57v183h209v-183l49 -2q21 0 43 13q26 14 36.5 36.5t13.5 53.5h203q0 -60 -11 -114.5t-36 -96t-64.5 -66t-97.5 -24.5h-489q-57 0 -97 24.5t-65 66t-36.5 96t-11.5 114.5zM4 468q0 60 11.5 114
t36.5 95.5t65 66t97 24.5h489q58 0 97.5 -24.5t64.5 -66t36 -95.5t11 -114h-203q-2 16 -5.5 29t-9.5 24q-9 22 -35 36q-23 14 -43 14h-315q-21 0 -43 -14q-25 -13 -35.5 -35t-15.5 -54h-203z" />
    <glyph glyph-name="FL0052h" unicode="R" horiz-adv-x="957" 
d="M7 392v-392h204v198h351q2 0 10 -5t17 -11.5t16 -13t7 -9.5v-159h204v191q0 19 -6 34t-16.5 29t-23.5 27.5l-28 28.5q24 33 38 47q14 17 25 36.5t11 42.5v197q0 13 -7.5 34t-24.5 42q-17 20 -51 39.5t-84 19.5h-642v-186h562q15 0 25.5 -9t16.5 -22.5t9 -29.5t3 -30
q0 -43 -19.5 -71t-61.5 -28h-535z" />
    <glyph glyph-name="FL0053h" unicode="S" horiz-adv-x="991" 
d="M482 468h87q53 0 95 -9.5t74 -21.5q27 -13 52 -33q19 -21 39 -66q18 -45 24 -86q1 -11 1.5 -22.5t0.5 -22.5q0 -33 -7 -66.5t-24 -61.5q-16 -25 -37 -40.5t-44 -24t-46 -11.5t-41 -3h-287v178h227q11 0 19.5 6.5t14.5 16t9 21.5t3 23q0 20 -10.5 38t-29.5 18h-339
q-44 0 -99 12q-29 6 -47 12.5t-27 12.5q-20 15 -38 41q-21 29 -30.5 64t-11.5 75q-1 5 -1 13v15q0 27 3 60q3 24 8.5 43t16.5 34q18 31 63 54q44 25 68 28q22 3 41 3h287v-178h-227q-11 0 -19.5 -6.5t-14.5 -16t-9 -21.5t-3 -23q0 -21 10 -38q11 -17 63 -17h186zM860 548
h-223q-2 17 -14 28t-26 16v176h59q23 0 55.5 -6.5t61.5 -21.5q30 -16 52 -52q11 -18 18 -37.5t10.5 -38t5 -35.5t1.5 -29zM7 220h223q2 -14 14 -28t27 -14v-178h-60q-24 0 -56.5 6.5t-61.5 22.5q-15 8 -27.5 20.5t-23.5 29.5q-23 38 -29 76.5t-6 64.5z" />
    <glyph glyph-name="T" unicode="T" horiz-adv-x="909" 
d="M288 483v-483h201v483h-201zM7 768v-186h763v186h-763z" />
    <glyph glyph-name="FL0055h" unicode="U" horiz-adv-x="1032" 
d="M897 294v474h-209v-474h209zM895 193h-602h-2q-12 1 -22 4t-25 20q-16 18 -21.5 39t-10.5 44v465h-207v-552q0 -51 19 -91t49.5 -67t69 -41.5t76.5 -14.5h676v194z" />
    <glyph glyph-name="FL0056h" unicode="V" horiz-adv-x="1101" 
d="M485 214l274 554h211l-368 -769h-233l-367 769h210zM376 585v182h208v-182h-208z" />
    <glyph glyph-name="FL0057h" unicode="W" horiz-adv-x="1104" 
d="M7 0v768h200v-768h-200zM964 0h-200v768h200v-768zM491 476l-4 2l-212 -385v373l188 302h45l188 -302v-377z" />
    <glyph glyph-name="FL0058h" unicode="X" horiz-adv-x="957" 
d="M465 569h97q2 1 10 6t17 11.5t16 13t7 10.5v158h204v-190q0 -19 -6 -34.5t-16.5 -29t-23.5 -27l-28 -29.5l21 -27.5t17 -19.5q14 -17 25 -36t11 -42v-333h-194v280q0 44 -19 69t-61 27l-77 3v190zM353 379l-70 -3q-42 -2 -61.5 -28.5t-19.5 -70.5v-277h-195v333
q1 11 3.5 21.5t8.5 20.5t12.5 18l14 17.5l16.5 20.5l21 27l-28.5 29.5t-24 27t-16.5 29t-6 34.5v190h204v-158q0 -4 7 -10.5t16 -13t17 -11t11 -4.5h90v-192z" />
    <glyph glyph-name="FL0059h" unicode="Y" horiz-adv-x="957" 
d="M818 392l-204 -194h-73v-198h-209v197h-69l-254 197v374h194v-280q0 -43 19 -69.5t61 -26.5h535zM818 586h-207v182h207v-182z" />
    <glyph glyph-name="FL005Ah" unicode="Z" horiz-adv-x="865" 
d="M729 586v182h-722v-183h421l-369 -297h275zM729 182h-722v-182h722v182z" />
    <glyph glyph-name="FL005Bh" unicode="[" horiz-adv-x="508" 
d="M7 476h188v-182h-188v182zM7 575v193h348v-193h-348zM355 190v-191h-350v191h350z" />
    <glyph glyph-name="FL005Ch" unicode="\" horiz-adv-x="686" 
d="M5 762l380 -763h210l-367 771h-226z" />
    <glyph glyph-name="FL005Dh" unicode="]" horiz-adv-x="508" 
d="M353 476h-188v-182h188v182zM353 575v193h-348v-193h348zM5 190v-191h350v191h-350z" />
    <glyph glyph-name="FL005Eh" unicode="^" horiz-adv-x="675" 
d="M292 641l-162 -300h-128l222 427h142l225 -427h-129z" />
    <glyph glyph-name="FL005Fh" unicode="_" horiz-adv-x="701" 
d="M-10 -102h722v-149h-722v149z" />
    <glyph glyph-name="FL0060h" unicode="`" 
d="M7 564l49 -103h101l57 103v204h-207v-204z" />
    <glyph glyph-name="a" unicode="a" horiz-adv-x="1101" 
d="M485 553l274 -554h211l-368 769h-233l-367 -769h210z" />
    <glyph glyph-name="b" unicode="b" horiz-adv-x="991" 
d="M7 768h197v-300h365q52 0 63 17q10 17 10 38q0 11 -3 23t-9 21.5t-14.5 16t-19.5 6.5h-295v178h355q23 0 55.5 -6.5t61.5 -21.5q29 -16 52 -51.5t28 -82.5q1 -12 1.5 -23.5t0.5 -23.5q0 -69 -26 -118q-17 -33 -76 -60q59 -19 76 -54q18 -35 24 -75q1 -11 1.5 -22.5
t0.5 -22.5q0 -33 -6.5 -66.5t-23.5 -61.5q-16 -25 -37.5 -40.5t-45 -24t-46 -11.5t-40.5 -3h-355v178h295q11 0 19.5 6.5t14.5 16t9 21.5t3 23q0 20 -10.5 38t-29.5 18h-398v-301h-197v768z" />
    <glyph glyph-name="c" unicode="c" horiz-adv-x="1037" 
d="M895 575v193h-676q-38 0 -76.5 -14.5t-69 -41.5t-49.5 -67t-19 -91v-340q0 -50 19 -89.5t49 -66.5t67.5 -41.5t75.5 -14.5h681v189h-597q-10 2 -17.5 3t-13.5 3.5t-12 7t-14 13.5q-15 18 -21 39t-9 44v167q3 22 9 43t21 39q16 18 26.5 21.5t23.5 3.5h602z" />
    <glyph glyph-name="d" unicode="d" horiz-adv-x="1037" 
d="M7 476h207v-182h-207v182zM7 575v193h676q38 0 76.5 -14.5t69 -41.5t49.5 -67t19 -91v-340q0 -51 -19 -90.5t-49.5 -67t-69 -42t-76.5 -14.5h-678v191h597q10 2 17.5 3t13.5 3.5t12 7t14 13.5q15 18 21 39t9 44v167q-3 22 -9 43t-21 39t-26 21.5t-24 3.5h-602z" />
    <glyph glyph-name="e" unicode="e" horiz-adv-x="865" 
d="M7 182v-182h722v182h-722zM7 471v-167h722v167h-722zM7 586h722v182h-722v-182z" />
    <glyph glyph-name="f" unicode="f" horiz-adv-x="875" 
d="M7 471v-167h722v167h-722zM7 586h722v182h-722v-182zM7 182v-182h207v182h-207z" />
    <glyph glyph-name="g" unicode="g" horiz-adv-x="1037" 
d="M897 456h-208v-197h208v197zM895 575v193h-676q-38 0 -76.5 -14.5t-69 -41.5t-49.5 -67t-19 -91v-340q0 -51 19 -90.5t49.5 -67t69 -42t76.5 -14.5h676v191h-595q-10 2 -17.5 3t-13.5 3.5t-12 7t-14 13.5q-15 18 -21 39t-9 44v167q3 22 9 43t21 39t25.5 21t22.5 4h604z
" />
    <glyph glyph-name="h" unicode="h" horiz-adv-x="930" 
d="M7 768h197v-300h135v-168h-135v-300h-197v768zM793 768v-768h-198v300h-141v168h141v300h198z" />
    <glyph glyph-name="i" unicode="i" 
d="M7 768v-768h200v768h-200z" />
    <glyph glyph-name="j" unicode="j" horiz-adv-x="1032" 
d="M7 476v-182h207v182h-207zM689 769v-468q-3 -23 -9 -44t-21 -39q-15 -17 -26 -20.5t-24 -3.5h-602v-194h676q38 0 76.5 14.5t69 42t49.5 67t19 90.5v555h-208z" />
    <glyph glyph-name="k" unicode="k" horiz-adv-x="952" 
d="M7 392v-392h204v198h351q2 0 10 -5t17 -11.5t16 -13t7 -9.5v-159h204v191q0 19 -6 34t-16.5 29t-23.5 27.5l-28 28.5q24 33 38 47q14 17 25 36.5t13 42.5v332h-195v-277q0 -43 -19.5 -71t-61.5 -28h-535zM7 586h207v182h-207v-182z" />
    <glyph glyph-name="l" unicode="l" horiz-adv-x="803" 
d="M7 768h200v-768h-200v768zM301 198h362v-198h-362v198z" />
    <glyph glyph-name="m" unicode="m" horiz-adv-x="1104" 
d="M7 768v-768h200v768h-200zM964 768h-200v-768h200v768zM491 293l-4 -3l-212 386v-373l188 -303h45l188 303v377z" />
    <glyph glyph-name="n" unicode="n" horiz-adv-x="1032" 
d="M5 474v-475h209v475h-209zM7 575h604q12 -1 22.5 -4t25.5 -21t20.5 -39t10.5 -43v-467h207v553q0 51 -19 91t-49.5 67t-69 41.5t-76.5 14.5h-676v-193z" />
    <glyph glyph-name="o" unicode="o" horiz-adv-x="1051" 
d="M4 301h203q4 -29 15 -54q5 -11 14.5 -20t21 -15.5t23 -10t20.5 -3.5h315q21 0 43 13q26 14 36.5 36.5t13.5 53.5h203q0 -60 -11 -114.5t-36 -96t-64.5 -66t-97.5 -24.5h-489q-57 0 -97 24.5t-65 66t-36.5 96t-11.5 114.5zM4 468q0 60 11.5 114t36.5 95.5t65 66t97 24.5
h489q58 0 97.5 -24.5t64.5 -66t36 -95.5t11 -114h-203q-2 16 -5.5 29t-9.5 24q-9 22 -35 36q-23 14 -43 14h-315q-21 0 -43 -14q-25 -13 -35.5 -35t-15.5 -54h-203z" />
    <glyph glyph-name="p" unicode="p" horiz-adv-x="952" 
d="M817 334v299q-1 13 -8.5 34t-24.5 42q-17 20 -51 39.5t-84 19.5h-642v-186h562q28 0 40.5 -26.5t12.5 -61.5v-21q0 -40 -12.5 -60t-43.5 -20h-559v-393h204v198h438q50 0 84 20.5t51 41.5q17 20 24.5 40.5t8.5 33.5z" />
    <glyph glyph-name="q" unicode="q" horiz-adv-x="1051" 
d="M4 301q0 -60 11.5 -114.5t36.5 -96t65 -66t97 -24.5h489q58 0 97.5 24.5t64.5 66t36 96t11 114.5h-203q-3 -31 -13.5 -53.5t-36.5 -36.5q-22 -13 -43 -13l-49 2v183h-209v-183h-57h-5q-19 0 -41 13t-33 34q-6 13 -9.5 26t-5.5 28h-203zM4 468h203q5 32 15.5 54t35.5 35
q22 14 43 14h315q20 0 43 -14q26 -14 35 -36q10 -19 15 -53h203q0 60 -11 114t-36 95.5t-64.5 66t-97.5 24.5h-489q-57 0 -97 -24.5t-65 -66t-36.5 -95.5t-11.5 -114z" />
    <glyph glyph-name="r" unicode="r" horiz-adv-x="957" 
d="M7 392h535q42 0 61.5 28t19.5 71q0 14 -3 30t-9 29.5t-16.5 22.5t-25.5 9h-562v186h642q50 0 84 -19.5t51 -39.5q17 -21 24.5 -42t7.5 -34v-197q0 -23 -11 -42.5t-25 -36.5q-14 -14 -38 -47l28 -28.5t23.5 -27.5t16.5 -29t6 -34v-191h-204v159q0 3 -7 9.5t-16 13
t-17 11.5t-10 5h-351v-198h-204v392z" />
    <glyph glyph-name="s" unicode="s" horiz-adv-x="994" 
d="M0 247q1 -32 4.5 -66t14 -64.5t29.5 -55.5t52 -37q15 -6 29 -10.5t29 -7.5l28.5 -4.5t30.5 -2.5h8q6 0 8 1h122v166h-63q-17 0 -38 3.5t-30 13.5q-13 11 -20.5 30t-8.5 34h-195zM477 169v-170h130q58 0 97.5 11t71.5 32q37 25 57.5 73t20.5 134q0 45 -9 86t-29 73
q-20 31 -49 46.5t-74 19.5h-216v-161h102q1 1 10 1q23 0 40.5 -21t17.5 -50v-4q0 -28 -15.5 -45t-29.5 -25h-125zM6 534q0 -92 27 -140q26 -46 57 -58q31 -13 54.5 -17t55.5 -6h155v165h-56q-37 2 -61.5 18.5t-24.5 57.5q0 25 14 37.5t51 26.5h77v152h-169q-26 -2 -54 -8
t-47 -16q-19 -11 -34.5 -29.5t-31.5 -53.5q-13 -59 -13 -129zM811 536v8q0 7 -0.5 19.5t-2.5 27.5t-5 30.5t-8 29.5q-11 31 -29.5 54.5t-37.5 34.5q-20 10 -42 18q-25 8 -58 10.5t-59 6.5h-92v-157h45q30 -3 55 -25q26 -21 33 -36q9 -14 9 -21h192z" />
    <glyph glyph-name="t" unicode="t" horiz-adv-x="909" 
d="M288 483v-483h201v483h-201zM7 768v-186h763v186h-763z" />
    <glyph glyph-name="u" unicode="u" horiz-adv-x="1051" 
d="M4 301q0 -60 11.5 -114.5t36.5 -96t65 -66t97 -24.5h489q58 0 97.5 24.5t64.5 66t36 96t11 114.5h-203q-3 -31 -13.5 -53.5t-36.5 -36.5q-23 -13 -43 -13h-315q-9 0 -20.5 3.5t-23 9.5t-21 15t-14.5 21q-6 13 -9.5 26t-5.5 28h-203zM4 468h203v299h-203v-299zM912 468
v299h-203v-299h203z" />
    <glyph glyph-name="v" unicode="v" horiz-adv-x="1101" 
d="M485 214l274 554h211l-368 -769h-233l-367 769h210z" />
    <glyph glyph-name="w" unicode="w" horiz-adv-x="1104" 
d="M484 439l275 -440h211l-456 769h-58l-454 -769h210zM7 768v-566l200 343v223h-200zM965 768h-200v-223l200 -343v566z" />
    <glyph glyph-name="x" unicode="x" horiz-adv-x="957" 
d="M465 200v189l77 3q42 3 61.5 29.5t19.5 69.5v277h195v-332q-2 -23 -13 -42.5t-25 -36.5q-14 -14 -38 -47l28 -28.5t23.5 -27.5t16.5 -29t6 -34v-191h-204v159q0 3 -7 9.5t-16 13t-17 11.5t-10 5zM353 389v-189h-90q-3 -1 -11 -6.5l-17 -12t-16 -13t-7 -9.5v-159h-204v191
q0 19 6 34t16.5 29t24 27.5l28.5 28.5l-21 27.5l-16.5 20.5l-14 17.5t-12.5 17.5q-11 19 -11 43v332h194v-277q0 -43 19.5 -71t61.5 -28z" />
    <glyph glyph-name="y" unicode="y" horiz-adv-x="957" 
d="M7 392h535q42 0 61.5 28t19.5 71v277h195v-374l-256 -196h-70v-198h-207v197h-74zM7 586v182h207v-182h-207z" />
    <glyph glyph-name="z" unicode="z" horiz-adv-x="865" 
d="M7 182v-182h722v183h-421l369 297h-275zM7 586h722v182h-722v-182z" />
    <glyph glyph-name="FL007Bh" unicode="{" horiz-adv-x="529" 
d="M374 575v193h-155q-38 0 -76.5 -14.5t-69 -41.5t-49.5 -67t-19 -91v-340q0 -51 19 -91t49.5 -67.5t69 -42.5t76.5 -15h155v193h-74q-10 2 -17.5 3t-13.5 3.5t-12 7t-14 13.5q-15 18 -21 39t-9 44v167q3 22 9 43t21 39q16 18 26.5 21.5t23.5 3.5h81z" />
    <glyph glyph-name="FL007Ch" unicode="|" 
d="M7 918h200v-1033h-200v1033z" />
    <glyph glyph-name="FL007Dh" unicode="}" horiz-adv-x="529" 
d="M5 575v193h155q38 0 76.5 -14.5t69 -41.5t49.5 -67t19 -91v-340q0 -51 -19 -91t-49.5 -67.5t-69 -42.5t-76.5 -15h-155v193h74q10 2 17.5 3t14 3.5t12.5 7t14 13.5q15 18 20.5 39t8.5 44v167q-3 22 -8.5 43t-20.5 39q-16 18 -26.5 21.5t-24.5 3.5h-81z" />
    <glyph glyph-name="FL2026h" unicode="&#x2026;" horiz-adv-x="1183" 
d="M738 182v-182h207v182h-207zM7 182v-182h207v182h-207zM369 182v-182h207v182h-207z" />
    <glyph glyph-name="FL02C6h" unicode="&#x2c6;" horiz-adv-x="675" 
d="M292 641l-162 -300h-128l222 427h142l225 -427h-129z" />
    <glyph glyph-name="FL2018h" unicode="&#x2018;" 
d="M7 564l49 -103h101l57 103v204h-207v-204z" />
    <glyph glyph-name="FL2019h" unicode="&#x2019;" 
d="M7 564l49 -103h101l57 103v204h-207v-204z" />
    <glyph glyph-name="FL201Ch" unicode="&#x201c;" horiz-adv-x="668" 
d="M320 564l49 -103h101l57 103v204h-207v-204zM7 564l49 -103h101l57 103v204h-207v-204z" />
    <glyph glyph-name="FL201Dh" unicode="&#x201d;" horiz-adv-x="668" 
d="M320 564l49 -103h101l57 103v204h-207v-204zM7 564l49 -103h101l57 103v204h-207v-204z" />
    <glyph glyph-name="FL2022h" unicode="&#x2022;" horiz-adv-x="548" 
d="M269 618h-141l-121 -146v-168l121 -145h141l126 146v166z" />
    <glyph glyph-name="FL2013h" unicode="&#x2013;" horiz-adv-x="548" 
d="M7 471h388v-167h-388v167z" />
    <glyph glyph-name="FL2014h" unicode="&#x2014;" horiz-adv-x="548" 
d="M7 471h388v-167h-388v167z" />
    <glyph glyph-name="FL00A1h" unicode="&#xa1;" 
d="M214 0h-200v479h200v-479zM214 586h-207v182h207v-182z" />
    <glyph glyph-name="FL00A6h" unicode="&#xa6;" 
d="M7 918h200v-1033h-200v1033z" />
    <glyph glyph-name="FL00BFh" unicode="&#xbf;" horiz-adv-x="991" 
d="M482 302h87q53 0 95 9t74 22q28 12 52 33q10 10 19.5 26.5t19.5 39.5q8 21 14 39.5t8 34.5h-202q-1 -3 -3 -5q-10 -15 -18 -23.5t-26 -8.5h-339q-46 0 -99 -13q-56 -12 -74 -24q-10 -8 -19.5 -18t-18.5 -24q-21 -29 -30.5 -63.5t-11.5 -75.5q-1 -5 -1 -14v-16
q0 -36 6 -73t22 -63q20 -31 63 -53q44 -25 68 -28q22 -3 41 -3h287v178h-227q-11 0 -19.5 6.5t-14.5 16t-9 21.5t-3 23q0 21 10 38q10 18 63 18h186zM860 221h-223q-2 -16 -14 -27.5t-26 -16.5v-176h59q23 0 55.5 6.5t61.5 22.5q15 8 28 21t24 30q22 36 28.5 75.5t6.5 64.5z
M860 587v182h-208v-182h208z" />
    </font>
</defs>
</svg>
